<?xml version="1.0" encoding="UTF-8" standalone="no"?>
<!DOCTYPE svg PUBLIC "-//W3C//DTD SVG 1.1//EN"
 "http://www.w3.org/Graphics/SVG/1.1/DTD/svg11.dtd">
<!-- Generated by graphviz version 2.40.1 (20161225.0304)
 -->
<!-- Title: G Pages: 1 -->
<svg width="111pt" height="96pt"
 viewBox="0.00 0.00 111.00 96.00" xmlns="http://www.w3.org/2000/svg" xmlns:xlink="http://www.w3.org/1999/xlink">
<g id="graph0" class="graph" transform="scale(1 1) rotate(0) translate(4 92)">
<title>G</title>
<polygon fill="#ffffff" stroke="transparent" points="-4,4 -4,-92 107,-92 107,4 -4,4"/>
<g id="clust1" class="cluster">
<title>cluster_Global</title>
<path fill="none" stroke="#c0c0c0" d="M20,-8C20,-8 83,-8 83,-8 89,-8 95,-14 95,-20 95,-20 95,-68 95,-68 95,-74 89,-80 83,-80 83,-80 20,-80 20,-80 14,-80 8,-74 8,-68 8,-68 8,-20 8,-20 8,-14 14,-8 20,-8"/>
<text text-anchor="middle" x="51.5" y="-67.2" font-family="Times,serif" font-size="11.00" fill="#c0c0c0">Global</text>
</g>
<!-- \\Producto -->
<g id="node1" class="node">
<title>\\Producto</title>
<polygon fill="none" stroke="#000000" points="87,-52 16,-52 16,-16 87,-16 87,-52"/>
<text text-anchor="middle" x="51.5" y="-31.2" font-family="Courier,monospace" font-size="11.00" fill="#000000">Producto</text>
</g>
</g>
</svg>
